<?xml version="1.0" standalone="no"?>
<!DOCTYPE svg PUBLIC "-//W3C//DTD SVG 20010904//EN"
 "http://www.w3.org/TR/2001/REC-SVG-20010904/DTD/svg10.dtd">
<svg version="1.0" xmlns="http://www.w3.org/2000/svg"
 width="454.000000pt" height="454.000000pt" viewBox="0 0 454.000000 454.000000"
 preserveAspectRatio="xMidYMid meet">

<g transform="translate(0.000000,454.000000) scale(0.100000,-0.100000)"
fill="#000000" stroke="none">
<path d="M1941 3534 c-12 -27 -11 -28 4 -12 10 9 16 21 13 28 -2 7 -10 -1 -17
-16z"/>
<path d="M1531 3524 c0 -11 3 -14 6 -6 3 7 2 16 -1 19 -3 4 -6 -2 -5 -13z"/>
<path d="M1360 3470 c0 -5 7 -10 16 -10 8 0 12 5 9 10 -3 6 -10 10 -16 10 -5
0 -9 -4 -9 -10z"/>
<path d="M1553 3458 c-8 -9 -8 -18 1 -30 19 -25 37 -8 22 20 -10 19 -15 21
-23 10z"/>
<path d="M1687 3416 c-3 -7 -18 -17 -34 -20 -15 -4 -36 -14 -45 -23 -15 -13
-18 -13 -29 5 -13 20 -13 20 -37 -5 l-23 -26 29 -31 c36 -38 62 -77 62 -91 -1
-5 -9 0 -19 11 -9 12 -37 32 -62 44 l-44 21 31 -25 c55 -44 94 -84 94 -94 0
-5 16 -33 35 -62 88 -130 102 -329 33 -464 -25 -48 -17 -54 63 -50 l59 3 0
-34 c0 -36 -13 -51 -50 -58 -14 -2 89 -6 228 -8 l252 -4 0 100 0 100 -24 -42
c-65 -114 -104 -143 -191 -143 l-55 0 0 110 c0 109 0 110 24 110 33 0 63 -29
74 -70 9 -34 9 -33 16 30 4 36 6 85 4 110 l-3 45 -18 -41 c-16 -36 -49 -64
-76 -64 -15 0 -10 152 5 182 17 32 38 36 53 11 6 -10 11 -12 11 -5 1 44 88
-23 137 -105 14 -24 27 -43 29 -43 2 0 4 41 4 90 l0 90 -70 0 c-74 0 -84 7
-47 34 22 16 22 16 -8 10 -16 -4 -34 -11 -40 -15 -30 -28 -42 27 -13 58 26 27
16 44 -11 19 -18 -16 -20 -16 -39 11 -15 21 -18 33 -11 46 11 19 -1 23 -18 6
-8 -8 -13 -8 -18 1 -4 6 1 18 11 25 11 8 15 15 10 15 -5 0 -18 -7 -28 -17 -17
-15 -18 -15 -18 2 0 25 -31 46 -47 33 -9 -7 -14 -6 -17 3 -2 8 -9 33 -15 57
-8 29 -17 42 -29 42 -25 0 -42 20 -42 47 0 13 -4 23 -10 23 -5 0 -7 13 -3 30
5 29 4 30 -30 30 -20 0 -37 -6 -40 -14z"/>
<path d="M915 3232 c-154 -10 -246 -74 -286 -202 -27 -85 -40 -337 -18 -328 8
4 22 9 32 13 20 8 21 -1 6 -64 -17 -74 -7 -94 63 -124 46 -20 59 -30 54 -42
-4 -13 -1 -15 13 -10 22 7 51 -27 51 -58 0 -10 5 -15 10 -12 6 3 10 -3 10 -14
0 -10 5 -21 11 -23 6 -2 14 -28 18 -58 l7 -55 13 40 c14 41 35 65 58 65 7 0
13 -8 14 -17 0 -14 2 -13 9 5 11 27 39 28 71 4 28 -22 53 -32 94 -39 80 -14
102 -24 115 -51 11 -22 14 -24 17 -9 3 9 10 17 16 17 7 0 13 10 13 23 1 12 5
41 8 65 l7 42 -40 0 c-200 0 -384 145 -437 345 -40 149 9 340 112 437 19 18
34 35 34 39 0 10 -30 14 -75 11z"/>
<path d="M1121 3179 c-53 -17 -76 -32 -127 -83 -54 -54 -65 -72 -85 -135 -57
-188 18 -363 189 -444 62 -30 75 -32 172 -32 88 0 112 4 146 22 70 38 134 119
149 193 10 47 -7 28 -30 -34 -59 -161 -234 -199 -319 -69 -53 82 -75 232 -53
358 27 149 76 215 160 215 90 0 142 -52 198 -197 l34 -88 6 65 c11 105 10 238
-1 245 -6 4 -13 -7 -16 -24 -12 -57 -27 -59 -112 -16 -70 36 -85 40 -162 42
-64 2 -101 -2 -149 -18z"/>
<path d="M2585 2974 c-60 -15 -90 -29 -121 -57 -66 -57 -93 -142 -74 -232 24
-116 114 -185 242 -185 104 0 153 27 189 105 31 67 21 74 -11 9 -42 -86 -102
-114 -169 -79 -93 47 -110 308 -26 392 62 62 128 33 180 -80 l34 -72 0 100 c0
66 -3 93 -9 79 -14 -35 -27 -37 -72 -10 -42 24 -124 39 -163 30z"/>
<path d="M3139 2958 c-9 -7 -44 -96 -79 -198 -76 -225 -83 -238 -118 -246 -51
-11 -47 -12 43 -12 73 0 84 2 58 9 -28 8 -33 14 -33 40 0 16 7 45 15 65 14 35
15 35 72 32 l58 -3 18 -54 c19 -58 14 -76 -26 -84 -12 -2 46 -4 128 -4 83 0
140 2 128 4 -12 2 -27 11 -34 19 -6 8 -47 110 -89 227 -69 190 -80 212 -101
215 -13 2 -31 -3 -40 -10z m-15 -226 l25 -72 -55 0 c-30 0 -54 2 -54 4 0 12
53 146 56 143 2 -2 15 -36 28 -75z"/>
<path d="M3476 2869 c1 -49 4 -92 6 -95 3 -2 19 23 37 56 44 82 78 120 107
120 l24 0 0 -201 c0 -119 -4 -208 -10 -220 -6 -11 -22 -20 -38 -20 -15 -1 9
-6 53 -11 44 -5 104 -6 133 -2 47 5 51 7 36 18 -19 15 -21 38 -16 289 2 137 3
147 21 147 23 0 73 -55 106 -118 44 -85 45 -85 45 26 l0 102 -253 0 -253 0 2
-91z"/>
<path d="M2037 2873 c-4 -3 -7 -13 -7 -21 0 -12 3 -12 15 -2 8 7 15 16 15 21
0 11 -14 12 -23 2z"/>
<path d="M2000 2830 c0 -5 5 -10 11 -10 5 0 7 5 4 10 -3 6 -8 10 -11 10 -2 0
-4 -4 -4 -10z"/>
<path d="M1746 2433 c-4 -9 -1 -23 7 -30 12 -12 13 -9 9 17 -5 34 -7 37 -16
13z"/>
<path d="M1992 2415 c0 -16 2 -22 5 -12 2 9 2 23 0 30 -3 6 -5 -1 -5 -18z"/>
<path d="M2423 2424 c-3 -8 -2 -19 3 -24 5 -5 9 1 9 16 0 28 -3 30 -12 8z"/>
<path d="M3318 2410 c-3 -16 -1 -30 4 -30 4 0 8 14 8 30 0 17 -2 30 -4 30 -2
0 -6 -13 -8 -30z"/>
<path d="M3662 2410 c0 -19 2 -27 5 -17 2 9 2 25 0 35 -3 9 -5 1 -5 -18z"/>
<path d="M1840 2410 c0 -11 4 -20 9 -20 5 0 7 9 4 20 -3 11 -7 20 -9 20 -2 0
-4 -9 -4 -20z"/>
<path d="M1912 2410 c0 -14 2 -19 5 -12 2 6 2 18 0 25 -3 6 -5 1 -5 -13z"/>
<path d="M2040 2410 c0 -11 2 -20 4 -20 2 0 6 9 9 20 3 11 1 20 -4 20 -5 0 -9
-9 -9 -20z"/>
<path d="M2862 2405 c0 -16 2 -22 5 -12 2 9 2 23 0 30 -3 6 -5 -1 -5 -18z"/>
<path d="M2300 2405 c0 -8 4 -15 10 -15 5 0 7 7 4 15 -4 8 -8 15 -10 15 -2 0
-4 -7 -4 -15z"/>
<path d="M2535 2411 c-3 -5 -1 -12 5 -16 5 -3 10 1 10 9 0 18 -6 21 -15 7z"/>
<path d="M2592 2390 c0 -19 2 -27 5 -17 2 9 2 25 0 35 -3 9 -5 1 -5 -18z"/>
<path d="M2621 2404 c0 -11 3 -14 6 -6 3 7 2 16 -1 19 -3 4 -6 -2 -5 -13z"/>
<path d="M2691 2404 c0 -11 3 -14 6 -6 3 7 2 16 -1 19 -3 4 -6 -2 -5 -13z"/>
<path d="M2811 2404 c0 -11 3 -14 6 -6 3 7 2 16 -1 19 -3 4 -6 -2 -5 -13z"/>
<path d="M2932 2400 c0 -14 2 -19 5 -12 2 6 2 18 0 25 -3 6 -5 1 -5 -13z"/>
<path d="M3052 2400 c0 -14 2 -19 5 -12 2 6 2 18 0 25 -3 6 -5 1 -5 -13z"/>
<path d="M3172 2400 c0 -14 2 -19 5 -12 2 6 2 18 0 25 -3 6 -5 1 -5 -13z"/>
<path d="M3202 2400 c0 -14 2 -19 5 -12 2 6 2 18 0 25 -3 6 -5 1 -5 -13z"/>
<path d="M3512 2400 c0 -14 2 -19 5 -12 2 6 2 18 0 25 -3 6 -5 1 -5 -13z"/>
<path d="M3537 2399 c4 -13 8 -18 11 -10 2 7 -1 18 -6 23 -8 8 -9 4 -5 -13z"/>
<path d="M2980 2401 c0 -6 4 -13 10 -16 6 -3 7 1 4 9 -7 18 -14 21 -14 7z"/>
<path d="M3370 2401 c0 -6 4 -13 10 -16 6 -3 7 1 4 9 -7 18 -14 21 -14 7z"/>
<path d="M3441 2394 c0 -11 3 -14 6 -6 3 7 2 16 -1 19 -3 4 -6 -2 -5 -13z"/>
<path d="M3611 2394 c0 -11 3 -14 6 -6 3 7 2 16 -1 19 -3 4 -6 -2 -5 -13z"/>
<path d="M3711 2394 c0 -11 3 -14 6 -6 3 7 2 16 -1 19 -3 4 -6 -2 -5 -13z"/>
<path d="M3900 2398 c0 -9 5 -20 10 -23 13 -8 13 5 0 25 -8 13 -10 13 -10 -2z"/>
<path d="M3971 2394 c0 -11 3 -14 6 -6 3 7 2 16 -1 19 -3 4 -6 -2 -5 -13z"/>
</g>
</svg>